<svg xmlns="http://www.w3.org/2000/svg" xmlns:xlink="http://www.w3.org/1999/xlink" width="100" height="100" viewBox="0 0 100 100"><g><g transform="translate(50 50) scale(0.69 0.69) rotate(0) translate(-50 -50)" style="fill:#2057ab"><svg fill="#2057ab" xmlns="http://www.w3.org/2000/svg" xmlns:xlink="http://www.w3.org/1999/xlink" version="1.1" x="0px" y="0px" viewBox="0 0 100 100" enable-background="new 0 0 100 100" xml:space="preserve"><path fill="#2057ab" d="M58.71,63.402C56.389,65.722,53.296,67,50,67s-6.389-1.278-8.71-3.599L28.078,50.189l-23.07,23.07v1.395  c0,4.065,3.326,7.39,7.39,7.39h75.205c4.065,0,7.39-3.326,7.39-7.39v-1.245L71.848,50.264L58.71,63.402z"></path><path fill="#2057ab" d="M8.3,30.411c-1.215-1.215-3.293-0.355-3.293,1.364v34.63l19.644-19.644L8.3,30.411z"></path><path fill="#2057ab" d="M94.993,31.775c0-1.719-2.078-2.579-3.293-1.364L75.274,46.837l19.718,19.718V31.775z"></path><path fill="#2057ab" d="M50,62.073c1.894,0,3.789-0.719,5.226-2.156l38.575-38.575c-1.32-2.033-3.607-3.388-6.198-3.388H12.398  c-2.591,0-4.878,1.355-6.198,3.388l38.575,38.575C46.211,61.355,48.106,62.073,50,62.073z"></path></svg></g></g></svg>