<?xml version="1.0" encoding="utf-8"?>
<!-- Generator: Adobe Illustrator 25.4.1, SVG Export Plug-In . SVG Version: 6.00 Build 0)  -->
<svg version="1.1" id="Layer_1" xmlns="http://www.w3.org/2000/svg" xmlns:xlink="http://www.w3.org/1999/xlink" x="0px" y="0px"
	 viewBox="0 0 100 100" style="enable-background:new 0 0 100 100;" xml:space="preserve">
<style type="text/css">
	.st0{fill:#FFFFFF;}
</style>
<path class="st0" d="M59.8,81.9c0,0.6-0.3,1.1-0.6,1.1H42.4c-0.3,0-0.6-0.5-0.6-1.1s0.2-1.1,0.6-1.1h16.9
	C59.5,80.9,59.8,81.4,59.8,81.9z M59.2,84.7H42.4c-0.4,0-0.6,0.5-0.6,1.1s0.3,1.1,0.6,1.1h16.9c0.3,0,0.6-0.5,0.6-1.1
	S59.5,84.7,59.2,84.7z M59.2,88.6H42.4c-0.4,0-0.6,0.5-0.6,1.1c0,0.6,0.3,1.1,0.6,1.1h16.9c0.3,0,0.6-0.5,0.6-1.1
	C59.8,89,59.5,88.6,59.2,88.6z M56.7,92.3H44.9c-0.2,0-0.4,0.4-0.4,0.9c0,0.2,3.4,3.2,6.5,3.2c3.3,0.1,6.1-2.9,6.1-3.2
	C57.1,92.7,56.9,92.3,56.7,92.3z M43.8,27c-5.2,1.9-9.3,6.1-11,11.3c-2.1,6.2-1.1,12.2,1.9,16.8c3.7,5.7,5.4,12.5,5.4,19.3
	c0,1.7,0,2.9,0,2.9c0,1.2,0.7,1.7,1.4,1.7H60c0.8,0,1.4-0.6,1.4-1.4v-1.5c0-7.4,1.9-14.8,5.8-21.2c1.7-2.9,2.7-6.3,2.7-10
	C69.9,32.1,57.3,22.2,43.8,27z M36.8,28c0.9-0.8,1.9-1.5,2.9-2.1l-7.2-17C32.2,8,31.1,7.6,30.2,8c-0.9,0.4-1.3,1.4-0.9,2.3L36.8,28z
	 M72.5,10.3c0.4-0.9,0-1.9-0.9-2.3c-0.9-0.4-1.9,0-2.3,0.9L62,26.1c1,0.6,2,1.4,2.9,2.2L72.5,10.3z M11.7,21.2
	c-0.7,0.7-0.6,1.8,0.1,2.5L30,40.2c0.2-1.1,0.5-2.2,0.9-3.4c0-0.1,0-0.3,0.1-0.4L14.2,21.1C13.5,20.4,12.4,20.5,11.7,21.2z
	 M90.1,21.2c-0.7-0.7-1.8-0.8-2.5-0.1l-17,15.4c0.5,1.2,0.8,2.5,1.1,3.8L90,23.7C90.7,23.1,90.7,22,90.1,21.2z M52.6,23V5.5
	c0-1-0.8-1.8-1.8-1.8S49,4.5,49,5.5V23C50.2,22.9,51.4,22.9,52.6,23z"/>
</svg>
