<?xml version="1.0" encoding="UTF-8"?>
<svg width="100px" height="100px" viewBox="0 0 36 36" version="1.1" xmlns="http://www.w3.org/2000/svg" xmlns:xlink="http://www.w3.org/1999/xlink">
    <!-- Generator: Sketch 55.2 (78181) - https://sketchapp.com -->
    <title>Icons/content-money</title>
    <desc>Created with Sketch.</desc>
    <g id="Icons/content-money" stroke="none" stroke-width="1" fill="none" fill-rule="evenodd">
        <path d="M28.206,23.8724742 C28.206,27.6220412 25.3243883,30.2953436 20.6721478,30.8855533 L20.6721478,33.9754742 L16.2976529,33.9754742 L16.2976529,30.8855533 C11.5759759,30.3647801 8.48605498,28.0039416 8,23.6294467 L13.2771684,23.5252921 C13.8326598,25.7819759 15.7768797,26.9971134 18.5543368,26.9971134 C21.0540481,26.9971134 22.824677,25.6778213 22.824677,23.8724742 C22.824677,22.0324089 21.6789759,21.2686082 19.2139828,20.7131168 L15.1172337,19.8451615 C11.263512,19.0466426 8.7985189,16.824677 8.76380069,12.9362371 C8.69436426,8.83948797 11.9231581,6.09674914 16.4018076,5.40238488 L16.4018076,2 L20.7763024,2 L20.7763024,5.43710309 C25.1507973,6.20090378 27.8240997,9.1866701 27.7546632,12.7973643 L22.6163677,12.8668007 C22.3039038,10.6448351 21.3317938,9.29082474 18.6584914,9.29082474 C15.8810344,9.29082474 14.1798419,10.5406804 14.1798419,12.3460275 C14.1798419,13.8389107 14.9783608,14.5679931 17.7210997,15.2623574 L21.7484124,16.2344674 C26.3312165,17.3454502 28.206,20.088189 28.206,23.8724742 Z" id="$" fill="#FFFFFF" fill-rule="nonzero"></path>
    </g>
</svg>
