<?xml version="1.0" encoding="utf-8"?>
<!-- Generator: Adobe Illustrator 25.4.1, SVG Export Plug-In . SVG Version: 6.00 Build 0)  -->
<svg version="1.1" id="Layer_1" xmlns="http://www.w3.org/2000/svg" xmlns:xlink="http://www.w3.org/1999/xlink" x="0px" y="0px"
	 viewBox="0 0 100 100" style="enable-background:new 0 0 100 100;" xml:space="preserve">
<style type="text/css">
	.st0{fill:#FFFFFF;}
</style>
<path class="st0" d="M96.1,41.6l-8,6.7c-2,1.7-4.6,5.1-5.8,7.7c-0.7,1.5-2,3.2-6.4,7.2c0,0-0.1,0-0.1,0c-0.1,0-0.2,0-0.3-0.2
	L75.5,63l-0.1-0.1L54.7,45.1c-0.5-0.5-1.1-0.8-1.8-0.8c-0.5,0-1,0.2-1.3,0.4c-5.7,4.4-10.5,7-12.9,7l-0.1,0
	c-3.4-0.1-5.3-1.4-6.1-2.2c-0.1-0.1-0.2-0.3,0-0.5l1.4-1.2C44.7,38.7,52.5,32,61.2,32l0.2,0l0.1,0c0.1,0,0.3,0,0.4,0
	c2.8,0,5.6-1,8-2.9l9.9-8.3l0,0l0,0c0,0,0.1,0,0.1,0c0.1,0,0.2,0,0.3,0.1L96.1,41C96.3,41.2,96.2,41.4,96.1,41.6z M35.7,70.1
	L35,69.4c-0.5-0.6-1.3-1-2-1c-0.5,0-1,0.2-1.4,0.5l-3.7,3c-0.4,0.3-0.7,0.8-0.7,1.4c-0.1,0.7,0.1,1.4,0.6,2l0.7,0.8
	c0.5,0.6,1.3,1,2,1c0.5,0,1-0.2,1.4-0.5l3.7-3C36.5,72.7,36.6,71.2,35.7,70.1z M23.3,66.3l-0.4,0.4c-0.4,0.4-0.7,0.8-0.7,1.2
	c0,0.5,0.1,0.9,0.4,1.3l0.5,0.6c0.4,0.4,0.9,0.7,1.4,0.7c0.4,0,0.8-0.1,1.1-0.4l0.8-0.7C25.4,68.5,24.4,67.5,23.3,66.3z M42.6,78.2
	c0.1-0.6-0.1-1.3-0.5-1.8l-0.6-0.6l0,0l0,0c-0.5-0.6-1.2-1-2-1c-0.6,0-1.1,0.2-1.5,0.5l-4.1,3.4c-1,0.9-1.1,2.4-0.3,3.5l0.5,0.6
	c0.5,0.6,1.2,1,2,1c0.6,0,1.1-0.2,1.5-0.5l4.1-3.4C42.2,79.4,42.5,78.8,42.6,78.2z M45.6,82.6c-0.4-0.4-0.9-0.7-1.4-0.7
	c-0.3,0-0.7,0.1-0.9,0.3l-2.9,2.4c-0.3,0.2-0.5,0.6-0.5,1c0,0.5,0.1,1,0.5,1.4l0.5,0.6c0.4,0.4,0.9,0.7,1.4,0.7
	c0.3,0,0.7-0.1,0.9-0.3l2.9-2.4c0.3-0.2,0.5-0.6,0.5-1c0-0.5-0.1-1-0.5-1.4L45.6,82.6z M57.6,50.4l-4.1-3.5c-0.3-0.3-0.6-0.3-1,0
	c-3.9,2.9-9.8,6.7-13.7,6.6c-4.4-0.1-6.7-1.8-7.6-2.8l-0.1-0.1c-0.9-1.1-0.7-2.6,0.4-3.5c0.6-0.5,1.3-1.1,2-1.7
	c3-2.5,8-6.5,11.6-9.1c0.4-0.3,0.4-0.9,0.1-1.2c-1.6-1.5-3.1-1.7-5.6-2.3c-0.6-0.1-2.5-0.2-3.2-0.3c-1.1-0.2-2.3-0.4-3-1.1
	L21.7,20.9c-0.4-0.4-1.1-0.3-1.4,0.1L2.7,40.8c-0.4,0.4-0.4,1.1,0.1,1.4l12.6,10.5c0.2,0.2,2.9,2.8,4.5,6c0.8,1.5,1.9,3.1,3.2,4.7
	l0.6,0.7c1.2,1.4,2.7,2.9,4.4,4.5l0.3,0.3l1.2-1c2.2-1.8,5.5-1.5,7.3,0.8l0.1,0.2c0.7,0.9,1.1,2,1,3.1c0,0.5,0.4,0.9,0.9,0.8
	c1.5-0.1,2.9,0.4,3.9,1.7l0.5,0.6c0.9,1.2,1.2,2.7,0.9,4c-0.1,0.4,0.1,0.9,0.6,1c0.9,0.1,1.7,0.6,2.3,1.3l0.5,0.6
	c0.9,1.1,1,2.5,0.6,3.7c-0.1,0.3,0,0.6,0.2,0.8c2,1.8,1.9,1.9,3.4,1.7c0.7-0.1,1.7-0.6,2.2-1.2c1.4-1.8,1.2-3.1-1.2-5.4
	c-1.7-1.7-6.2-5.9-6.2-5.9c-0.4-0.3-0.1-0.6,0-0.8c0.1-0.2,0.4-0.3,0.7,0l9.3,8.6c0,0,1.7,1.5,3.3,1.3c0.7-0.1,1.2-0.5,2.1-1.2
	c0.9-1.2,1.6-2.8-0.6-4.9c-2.2-2.1-10-9.5-10-9.5c-0.3-0.3-0.5-0.7-0.2-1c0.3-0.3,0.7-0.3,1.1,0.1l13,12.1c0.1,0.1,0.9,1,2.6,0.8
	c0.9-0.1,2.1-0.9,2.8-1.8c1.4-1.9,0.8-3.6-1.1-5.7c-1.4-1.6-12-10.9-12-10.9c-0.4-0.3-0.4-0.8-0.2-1c0.2-0.2,0.5-0.2,0.9,0.1
	l12.6,11.2c0.3,0.3,3.5,2.6,6.4-0.7c2.4-2.8-0.1-4.9-1-6C76,66.1,57.6,50.4,57.6,50.4z"/>
</svg>
