<?xml version="1.0" encoding="utf-8"?>
<!-- Generator: Adobe Illustrator 25.4.1, SVG Export Plug-In . SVG Version: 6.00 Build 0)  -->
<svg version="1.1" id="Layer_1" xmlns="http://www.w3.org/2000/svg" xmlns:xlink="http://www.w3.org/1999/xlink" x="0px" y="0px"
	 viewBox="0 0 100 100" style="enable-background:new 0 0 100 100;" xml:space="preserve">
<style type="text/css">
	.st0{fill:#FFFFFF;}
</style>
<path class="st0" d="M17.7,21.7c-3.6,0-6.5-2.9-6.5-6.5s2.9-6.5,6.5-6.5s6.5,2.9,6.5,6.5S21.3,21.7,17.7,21.7z M48.4,50.4
	c0,3.6,2.9,6.5,6.5,6.5s6.5-2.9,6.5-6.5s-2.9-6.5-6.5-6.5C51.3,43.9,48.4,46.8,48.4,50.4z M38.1,77.7c-3.6,0-6.5,2.9-6.5,6.5
	s2.9,6.5,6.5,6.5s6.5-2.9,6.5-6.5S41.7,77.7,38.1,77.7z M68.7,21.7c3.6,0,6.5-2.9,6.5-6.5s-2.9-6.5-6.5-6.5s-6.5,2.9-6.5,6.5
	C62.2,18.8,65.1,21.7,68.7,21.7z M28.1,17.4h24.2l-1.5,1.5c-0.8,0.8-0.8,2.1,0,2.9c0.4,0.4,0.9,0.6,1.4,0.6s1-0.2,1.4-0.6l6.4-6.4
	L53.6,9c-0.8-0.8-2.1-0.8-2.9,0c-0.8,0.8-0.8,2.1,0,2.9l1.5,1.5H28.1c-1.1,0-2,0.9-2,2S27,17.4,28.1,17.4z M70.5,57.3
	c0.5,0,1-0.2,1.4-0.6c0.8-0.8,0.8-2.1,0-2.9L70.3,52H88V13.3h-8.9c-1.1,0-2,0.9-2,2s0.9,2,2,2H84V48H70.7l1.3-1.3
	c0.8-0.8,0.8-2.1,0-2.9c-0.8-0.8-2.1-0.8-2.9,0l-6.4,6.4l6.4,6.4C69.5,57.1,70,57.3,70.5,57.3z M81.9,77.7c-3.6,0-6.5,2.9-6.5,6.5
	s2.9,6.5,6.5,6.5s6.5-2.9,6.5-6.5S85.5,77.7,81.9,77.7z M64.2,78.2c-0.8,0.8-0.8,2.1,0,2.9l1.3,1.3H48.1c-1.1,0-2,0.9-2,2s0.9,2,2,2
	h17.8l-1.7,1.7c-0.8,0.8-0.8,2.1,0,2.9c0.4,0.4,0.9,0.6,1.4,0.6s1-0.2,1.4-0.6l6.4-6.4L67,78.2C66.3,77.4,65,77.4,64.2,78.2z
	 M21.4,78.2c-0.8,0.8-0.8,2.1,0,2.9l1.3,1.3h-3.4V51.8h25c1.1,0,2-0.9,2-2s-0.9-2-2-2h-29v38.7h8l-1.7,1.7c-0.8,0.8-0.8,2.1,0,2.9
	c0.4,0.4,0.9,0.6,1.4,0.6s1-0.2,1.4-0.6l6.4-6.4l-6.4-6.4C23.5,77.4,22.2,77.4,21.4,78.2z"/>
</svg>
